# Blender v2.79 (sub 0) OBJ File: 'asp.blend'
# www.blender.org
mtllib molecular_transformer.mtl
o coreTopPlate
v 0.187500 0.750000 0.781250
v 0.187500 0.937500 0.781250
v 0.187500 0.750000 0.218750
v 0.187500 0.937500 0.218750
v 0.750000 0.750000 0.781250
v 0.750000 0.937500 0.781250
v 0.750000 0.750000 0.218750
v 0.750000 0.937500 0.218750
vt 0.000000 0.390625
vt 0.070312 0.343750
vt 0.000000 0.343750
vt 0.210938 0.390625
vt 0.281250 0.343750
vt 0.210938 0.343750
vt 0.210938 0.390625
vt 0.140625 0.343750
vt 0.210938 0.343750
vt 0.140625 0.390625
vt 0.070312 0.343750
vt 0.210938 0.531250
vt 0.140625 0.390625
vt 0.140625 0.531250
vt 0.070312 0.531250
vt 0.140625 0.531250
vt 0.070312 0.390625
vt 0.281250 0.390625
vt 0.070312 0.390625
vt 0.210938 0.390625
vn -1.0000 0.0000 0.0000
vn 0.0000 0.0000 -1.0000
vn 1.0000 0.0000 0.0000
vn 0.0000 0.0000 1.0000
vn 0.0000 -1.0000 0.0000
vn 0.0000 1.0000 0.0000
usemtl None
s off
f 2/1/1 3/2/1 1/3/1
f 4/4/2 7/5/2 3/6/2
f 8/7/3 5/8/3 7/9/3
f 6/10/4 1/11/4 5/8/4
f 7/12/5 1/13/5 3/14/5
f 4/15/6 6/10/6 8/16/6
f 2/1/1 4/17/1 3/2/1
f 4/4/2 8/18/2 7/5/2
f 8/7/3 6/10/3 5/8/3
f 6/10/4 2/19/4 1/11/4
f 7/12/5 5/20/5 1/13/5
f 4/15/6 2/19/6 6/10/6
o coreTopElectr
v 0.375000 0.875000 0.591667
v 0.375000 1.000000 0.591667
v 0.375000 0.875000 0.404167
v 0.375000 1.000000 0.404167
v 0.562500 0.875000 0.591667
v 0.562500 1.000000 0.591667
v 0.562500 0.875000 0.404167
v 0.562500 1.000000 0.404167
vt 0.195312 0.265625
vt 0.218750 0.234375
vt 0.195312 0.234375
vt 0.265625 0.265625
vt 0.289062 0.234375
vt 0.265625 0.234375
vt 0.265625 0.265625
vt 0.242188 0.234375
vt 0.265625 0.234375
vt 0.242188 0.265625
vt 0.218750 0.234375
vt 0.265625 0.312500
vt 0.242188 0.265625
vt 0.242188 0.312500
vt 0.218750 0.312500
vt 0.242188 0.312500
vt 0.218750 0.265625
vt 0.289062 0.265625
vt 0.218750 0.265625
vt 0.265625 0.265625
vn -1.0000 0.0000 0.0000
vn 0.0000 0.0000 -1.0000
vn 1.0000 0.0000 0.0000
vn 0.0000 0.0000 1.0000
vn 0.0000 -1.0000 0.0000
vn 0.0000 1.0000 0.0000
usemtl None
s off
f 10/21/7 11/22/7 9/23/7
f 12/24/8 15/25/8 11/26/8
f 16/27/9 13/28/9 15/29/9
f 14/30/10 9/31/10 13/28/10
f 15/32/11 9/33/11 11/34/11
f 12/35/12 14/30/12 16/36/12
f 10/21/7 12/37/7 11/22/7
f 12/24/8 16/38/8 15/25/8
f 16/27/9 14/30/9 13/28/9
f 14/30/10 10/39/10 9/31/10
f 15/32/11 13/40/11 9/33/11
f 12/35/12 10/39/12 14/30/12
o coreWorkZone
v 0.312500 0.187500 0.687500
v 0.312500 0.750000 0.687500
v 0.312500 0.187500 0.312500
v 0.312500 0.750000 0.312500
v 0.687500 0.187500 0.687500
v 0.687500 0.750000 0.687500
v 0.687500 0.187500 0.312500
v 0.687500 0.750000 0.312500
vt 0.000000 0.218750
vt 0.046875 0.078125
vt 0.000000 0.078125
vt 0.140625 0.218750
vt 0.187500 0.078125
vt 0.140625 0.078125
vt 0.140625 0.218750
vt 0.093750 0.078125
vt 0.140625 0.078125
vt 0.093750 0.218750
vt 0.046875 0.078125
vt 0.140625 0.312500
vt 0.093750 0.218750
vt 0.093750 0.312500
vt 0.046875 0.312500
vt 0.093750 0.312500
vt 0.046875 0.218750
vt 0.187500 0.218750
vt 0.046875 0.218750
vt 0.140625 0.218750
vn -1.0000 0.0000 0.0000
vn 0.0000 0.0000 -1.0000
vn 1.0000 0.0000 0.0000
vn 0.0000 0.0000 1.0000
vn 0.0000 -1.0000 0.0000
vn 0.0000 1.0000 0.0000
usemtl None
s off
f 18/41/13 19/42/13 17/43/13
f 20/44/14 23/45/14 19/46/14
f 24/47/15 21/48/15 23/49/15
f 22/50/16 17/51/16 21/48/16
f 23/52/17 17/53/17 19/54/17
f 20/55/18 22/50/18 24/56/18
f 18/41/13 20/57/13 19/42/13
f 20/44/14 24/58/14 23/45/14
f 24/47/15 22/50/15 21/48/15
f 22/50/16 18/59/16 17/51/16
f 23/52/17 21/60/17 17/53/17
f 20/55/18 18/59/18 22/50/18
o coreBottom
v 0.187500 0.062500 0.812500
v 0.187500 0.250000 0.812500
v 0.187500 0.062500 0.187500
v 0.187500 0.250000 0.187500
v 0.812500 0.062500 0.812500
v 0.812500 0.250000 0.812500
v 0.812500 0.062500 0.187500
v 0.812500 0.250000 0.187500
vt 0.000000 0.843750
vt 0.078125 0.796875
vt 0.000000 0.796875
vt 0.234375 0.843750
vt 0.312500 0.796875
vt 0.234375 0.796875
vt 0.234375 0.843750
vt 0.156250 0.796875
vt 0.234375 0.796875
vt 0.156250 0.843750
vt 0.078125 0.796875
vt 0.234375 1.000000
vt 0.156250 0.843750
vt 0.156250 1.000000
vt 0.078125 1.000000
vt 0.156250 1.000000
vt 0.078125 0.843750
vt 0.312500 0.843750
vt 0.078125 0.843750
vt 0.234375 0.843750
vn -1.0000 0.0000 0.0000
vn 0.0000 0.0000 -1.0000
vn 1.0000 0.0000 0.0000
vn 0.0000 0.0000 1.0000
vn 0.0000 -1.0000 0.0000
vn 0.0000 1.0000 0.0000
usemtl None
s off
f 26/61/19 27/62/19 25/63/19
f 28/64/20 31/65/20 27/66/20
f 32/67/21 29/68/21 31/69/21
f 30/70/22 25/71/22 29/68/22
f 31/72/23 25/73/23 27/74/23
f 28/75/24 30/70/24 32/76/24
f 26/61/19 28/77/19 27/62/19
f 28/64/20 32/78/20 31/65/20
f 32/67/21 30/70/21 29/68/21
f 30/70/22 26/79/22 25/71/22
f 31/72/23 29/80/23 25/73/23
f 28/75/24 26/79/24 30/70/24
o thirdElBottom
v 0.537380 0.000000 0.189744
v 0.537380 0.312500 0.189744
v 0.212620 0.000000 0.377244
v 0.212620 0.312500 0.377244
v 0.443630 0.000000 0.027364
v 0.443630 0.312500 0.027364
v 0.118870 0.000000 0.214864
v 0.118870 0.312500 0.214864
vt 0.382812 0.656250
vt 0.429688 0.578125
vt 0.429688 0.656250
vt 0.500000 0.578125
vt 0.523438 0.656250
vt 0.500000 0.656250
vt 0.453125 0.656250
vt 0.500000 0.578125
vt 0.500000 0.656250
vt 0.429688 0.578125
vt 0.453125 0.656250
vt 0.429688 0.656250
vt 0.476562 0.656250
vt 0.453125 0.750000
vt 0.453125 0.656250
vt 0.429688 0.750000
vt 0.453125 0.656250
vt 0.453125 0.750000
vt 0.382812 0.578125
vt 0.523438 0.578125
vt 0.453125 0.578125
vt 0.453125 0.578125
vt 0.476562 0.750000
vt 0.429688 0.656250
vn 0.5000 0.0000 0.8660
vn -0.8660 0.0000 0.5000
vn -0.5000 0.0000 -0.8660
vn 0.8660 0.0000 -0.5000
vn 0.0000 -1.0000 0.0000
vn 0.0000 1.0000 0.0000
usemtl None
s off
f 34/81/25 35/82/25 33/83/25
f 36/84/26 39/85/26 35/86/26
f 40/87/27 37/88/27 39/89/27
f 38/90/28 33/91/28 37/92/28
f 39/93/29 33/94/29 35/95/29
f 36/96/30 38/97/30 40/98/30
f 34/81/25 36/99/25 35/82/25
f 36/84/26 40/100/26 39/85/26
f 40/87/27 38/101/27 37/88/27
f 38/90/28 34/102/28 33/91/28
f 39/93/29 37/103/29 33/94/29
f 36/96/30 34/104/30 38/97/30
o secondElBottom
v 0.212620 0.000000 0.622756
v 0.212620 0.312500 0.622756
v 0.537380 0.000000 0.810256
v 0.537380 0.312500 0.810256
v 0.118870 0.000000 0.785136
v 0.118870 0.312500 0.785136
v 0.443630 0.000000 0.972636
v 0.443630 0.312500 0.972636
vt 0.382812 0.656250
vt 0.429688 0.578125
vt 0.429688 0.656250
vt 0.500000 0.578125
vt 0.523438 0.656250
vt 0.500000 0.656250
vt 0.453125 0.656250
vt 0.500000 0.578125
vt 0.500000 0.656250
vt 0.429688 0.578125
vt 0.453125 0.656250
vt 0.429688 0.656250
vt 0.476562 0.656250
vt 0.453125 0.750000
vt 0.453125 0.656250
vt 0.429688 0.750000
vt 0.453125 0.656250
vt 0.453125 0.750000
vt 0.382812 0.578125
vt 0.523438 0.578125
vt 0.453125 0.578125
vt 0.453125 0.578125
vt 0.476562 0.750000
vt 0.429688 0.656250
vn 0.5000 0.0000 -0.8660
vn 0.8660 0.0000 0.5000
vn -0.5000 0.0000 0.8660
vn -0.8660 0.0000 -0.5000
vn 0.0000 -1.0000 0.0000
vn 0.0000 1.0000 0.0000
usemtl None
s off
f 42/105/31 43/106/31 41/107/31
f 44/108/32 47/109/32 43/110/32
f 48/111/33 45/112/33 47/113/33
f 46/114/34 41/115/34 45/116/34
f 47/117/35 41/118/35 43/119/35
f 44/120/36 46/121/36 48/122/36
f 42/105/31 44/123/31 43/106/31
f 44/108/32 48/124/32 47/109/32
f 48/111/33 46/125/33 45/112/33
f 46/114/34 42/126/34 41/115/34
f 47/117/35 45/127/35 41/118/35
f 44/120/36 42/128/36 46/121/36
o firstElBottom
v 0.750000 0.000000 0.687500
v 0.750000 0.312500 0.687500
v 0.750000 0.000000 0.312500
v 0.750000 0.312500 0.312500
v 0.937500 0.000000 0.687500
v 0.937500 0.312500 0.687500
v 0.937500 0.000000 0.312500
v 0.937500 0.312500 0.312500
vt 0.382812 0.656250
vt 0.429688 0.578125
vt 0.429688 0.656250
vt 0.500000 0.578125
vt 0.523438 0.656250
vt 0.500000 0.656250
vt 0.453125 0.656250
vt 0.500000 0.578125
vt 0.500000 0.656250
vt 0.429688 0.578125
vt 0.453125 0.656250
vt 0.429688 0.656250
vt 0.476562 0.656250
vt 0.453125 0.750000
vt 0.453125 0.656250
vt 0.429688 0.750000
vt 0.453125 0.656250
vt 0.453125 0.750000
vt 0.382812 0.578125
vt 0.523438 0.578125
vt 0.453125 0.578125
vt 0.453125 0.578125
vt 0.476562 0.750000
vt 0.429688 0.656250
vn -1.0000 0.0000 0.0000
vn 0.0000 0.0000 -1.0000
vn 1.0000 0.0000 0.0000
vn 0.0000 0.0000 1.0000
vn 0.0000 -1.0000 0.0000
vn 0.0000 1.0000 0.0000
usemtl None
s off
f 50/129/37 51/130/37 49/131/37
f 52/132/38 55/133/38 51/134/38
f 56/135/39 53/136/39 55/137/39
f 54/138/40 49/139/40 53/140/40
f 55/141/41 49/142/41 51/143/41
f 52/144/42 54/145/42 56/146/42
f 50/129/37 52/147/37 51/130/37
f 52/132/38 56/148/38 55/133/38
f 56/135/39 54/149/39 53/136/39
f 54/138/40 50/150/40 49/139/40
f 55/141/41 53/151/41 49/142/41
f 52/144/42 50/152/42 54/145/42
o thirdElTop
v 0.010617 0.812500 0.277364
v 0.551883 0.812500 -0.035136
v 0.676883 0.812500 0.181370
v 0.135617 0.812500 0.493870
v 0.010617 1.000000 0.277364
v 0.551883 1.000000 -0.035136
v 0.676883 1.000000 0.181370
v 0.135617 1.000000 0.493870
vt 0.296875 0.593750
vt 0.265625 0.750000
vt 0.265625 0.593750
vt 0.265625 0.750000
vt 0.234375 0.593750
vt 0.265625 0.593750
vt 0.343750 0.593750
vt 0.265625 0.546875
vt 0.343750 0.546875
vt 0.234375 0.546875
vt 0.156250 0.546875
vt 0.375000 0.593750
vt 0.296875 0.750000
vt 0.234375 0.750000
vt 0.156250 0.593750
vt 0.375000 0.546875
vn 0.0000 -1.0000 0.0000
vn 0.0000 1.0000 0.0000
vn -0.5000 -0.0000 -0.8660
vn 0.8660 -0.0000 -0.5000
vn 0.5000 -0.0000 0.8660
vn -0.8660 0.0000 0.5000
usemtl Material
s off
f 57/153/43 59/154/43 60/155/43
f 61/156/44 63/157/44 62/158/44
f 61/159/45 58/160/45 57/161/45
f 62/158/46 59/162/46 58/160/46
f 63/157/47 60/163/47 59/162/47
f 57/161/48 64/164/48 61/159/48
f 57/153/43 58/165/43 59/154/43
f 61/156/44 64/166/44 63/157/44
f 61/159/45 62/158/45 58/160/45
f 62/158/46 63/157/46 59/162/46
f 63/157/47 64/167/47 60/163/47
f 57/161/48 60/168/48 64/164/48
o secondElTop
v 0.551883 0.812500 1.035136
v 0.010617 0.812500 0.722636
v 0.135617 0.812500 0.506130
v 0.676883 0.812500 0.818630
v 0.551883 1.000000 1.035136
v 0.010617 1.000000 0.722636
v 0.135617 1.000000 0.506130
v 0.676883 1.000000 0.818630
vt 0.296875 0.593750
vt 0.265625 0.750000
vt 0.265625 0.593750
vt 0.265625 0.750000
vt 0.234375 0.593750
vt 0.265625 0.593750
vt 0.343750 0.593750
vt 0.265625 0.546875
vt 0.343750 0.546875
vt 0.234375 0.546875
vt 0.156250 0.546875
vt 0.375000 0.593750
vt 0.296875 0.750000
vt 0.234375 0.750000
vt 0.156250 0.593750
vt 0.375000 0.546875
vn 0.0000 -1.0000 0.0000
vn 0.0000 1.0000 -0.0000
vn -0.5000 -0.0000 0.8660
vn -0.8660 -0.0000 -0.5000
vn 0.5000 -0.0000 -0.8660
vn 0.8660 0.0000 0.5000
usemtl Material
s off
f 65/169/49 67/170/49 68/171/49
f 69/172/50 71/173/50 70/174/50
f 69/175/51 66/176/51 65/177/51
f 70/174/52 67/178/52 66/176/52
f 71/173/53 68/179/53 67/178/53
f 65/177/54 72/180/54 69/175/54
f 65/169/49 66/181/49 67/170/49
f 69/172/50 72/182/50 71/173/50
f 69/175/51 70/174/51 66/176/51
f 70/174/52 71/173/52 67/178/52
f 71/173/53 72/183/53 68/179/53
f 65/177/54 68/184/54 72/180/54
o firstElTop
v 0.937500 0.812500 0.187500
v 0.937500 0.812500 0.812500
v 0.687500 0.812500 0.812500
v 0.687500 0.812500 0.187500
v 0.937500 1.000000 0.187500
v 0.937500 1.000000 0.812500
v 0.687500 1.000000 0.812500
v 0.687500 1.000000 0.187500
vt 0.296875 0.593750
vt 0.265625 0.750000
vt 0.265625 0.593750
vt 0.265625 0.750000
vt 0.234375 0.593750
vt 0.265625 0.593750
vt 0.343750 0.593750
vt 0.265625 0.546875
vt 0.343750 0.546875
vt 0.234375 0.546875
vt 0.156250 0.546875
vt 0.375000 0.593750
vt 0.296875 0.750000
vt 0.234375 0.750000
vt 0.156250 0.593750
vt 0.375000 0.546875
vn 0.0000 -1.0000 0.0000
vn 0.0000 1.0000 0.0000
vn 1.0000 -0.0000 -0.0000
vn 0.0000 -0.0000 1.0000
vn -1.0000 -0.0000 -0.0000
vn 0.0000 0.0000 -1.0000
usemtl Material
s off
f 73/185/55 75/186/55 76/187/55
f 77/188/56 79/189/56 78/190/56
f 77/191/57 74/192/57 73/193/57
f 78/190/58 75/194/58 74/192/58
f 79/189/59 76/195/59 75/194/59
f 73/193/60 80/196/60 77/191/60
f 73/185/55 74/197/55 75/186/55
f 77/188/56 80/198/56 79/189/56
f 77/191/57 78/190/57 74/192/57
f 78/190/58 79/189/58 75/194/58
f 79/189/59 80/199/59 76/195/59
f 73/193/60 76/200/60 80/196/60
